<svg width="128" height="128" viewBox="0 0 128 128" fill="none" xmlns="http://www.w3.org/2000/svg">
<path d="M58.6667 10.6667H10.72C10.6905 10.6667 10.6667 10.6906 10.6667 10.72V80M10.6667 80L48 117.333M10.6667 80H48V117.333M48 117.333H101.28C101.309 117.333 101.333 117.309 101.333 117.28V74.6667" stroke="#FF6A13" stroke-width="8"/>
<path d="M113.333 37.667C113.333 25.1488 103.185 15.0002 90.667 15C78.1487 15 68 25.1487 68 37.667C68.0002 50.1852 78.1488 60.333 90.667 60.333C103.185 60.3328 113.333 50.1851 113.333 37.667ZM121.333 37.667C121.333 54.6033 107.603 68.3328 90.667 68.333C73.7305 68.333 60.0002 54.6034 60 37.667C60 20.7304 73.7304 7 90.667 7C107.603 7.00018 121.333 20.7305 121.333 37.667Z" fill="#FF6A13"/>
<path d="M86.6665 27.0015V48.3315C86.6666 50.5405 88.462 52.3315 90.671 52.3315C92.8799 52.3313 94.6663 50.5404 94.6665 48.3315V27.0015C94.6665 24.7925 92.8755 23.0017 90.6665 23.0015C88.4573 23.0015 86.6665 24.7924 86.6665 27.0015Z" fill="#FF6A13"/>
<path d="M101.331 33.6665L80.0015 33.6665C77.7925 33.6667 76.0015 35.462 76.0015 37.671C76.0017 39.8799 77.7926 41.6663 80.0015 41.6665L101.331 41.6665C103.541 41.6665 105.331 39.8755 105.331 37.6665C105.331 35.4573 103.541 33.6665 101.331 33.6665Z" fill="#FF6A13"/>
</svg>
