<svg width="128" height="128" viewBox="0 0 128 128" fill="none" xmlns="http://www.w3.org/2000/svg">
<path d="M58.6667 10.6667H10.72C10.6906 10.6667 10.6667 10.6906 10.6667 10.72V80M10.6667 80L48 117.333M10.6667 80H48V117.333M48 117.333H101.28C101.309 117.333 101.333 117.309 101.333 117.28V74.6667" stroke="#FF6A13" stroke-width="8"/>
<path d="M113.333 37.667C113.333 25.1488 103.185 15.0002 90.667 15C78.1487 15 68 25.1487 68 37.667C68.0002 50.1852 78.1488 60.333 90.667 60.333C103.185 60.3328 113.333 50.1851 113.333 37.667ZM90.7148 44.333C92.9238 44.3331 94.7147 46.1241 94.7148 48.333C94.7148 50.5421 92.9239 52.3329 90.7148 52.333H90.667C88.4579 52.333 86.667 50.5421 86.667 48.333C86.6672 46.124 88.458 44.333 90.667 44.333H90.7148ZM86.667 37.667V27C86.667 24.7909 88.4579 23 90.667 23C92.876 23.0002 94.667 24.791 94.667 27V37.667C94.6668 39.8759 92.8759 41.6668 90.667 41.667C88.458 41.667 86.6672 39.876 86.667 37.667ZM121.333 37.667C121.333 54.6033 107.603 68.3328 90.667 68.333C73.7305 68.333 60.0002 54.6034 60 37.667C60 20.7304 73.7304 7 90.667 7C107.603 7.00018 121.333 20.7305 121.333 37.667Z" fill="#FF6A13"/>
</svg>
