<svg width="128" height="128" viewBox="0 0 128 128" fill="none" xmlns="http://www.w3.org/2000/svg">
<path d="M117.333 62.6347V50.8437C102.098 50.8437 92.1819 34.2952 99.896 21.1563L81.4208 10.6667C73.6117 23.9677 54.3797 23.9683 46.5712 10.6672L28.096 21.1569C35.8096 34.2955 25.9024 50.8437 10.6667 50.8437V71.8235C25.9019 71.8235 35.8005 88.3712 28.0875 101.51L46.5627 111.999C48.5774 108.567 51.3523 106.021 54.4949 104.359M80.8448 53.2801C77.8384 47.0023 71.4256 42.6667 64 42.6667C53.6907 42.6667 45.3333 51.024 45.3333 61.3333C45.3333 68.1323 48.9682 74.0821 54.4005 77.3456" stroke="#FF6A13" stroke-width="8"/>
<path d="M113.333 90.667C113.333 78.1488 103.185 68.0002 90.667 68C78.1487 68 68 78.1487 68 90.667C68.0002 103.185 78.1488 113.333 90.667 113.333C103.185 113.333 113.333 103.185 113.333 90.667ZM90.7148 97.333C92.9238 97.3331 94.7147 99.1241 94.7148 101.333C94.7148 103.542 92.9239 105.333 90.7148 105.333H90.667C88.4579 105.333 86.667 103.542 86.667 101.333C86.6672 99.124 88.458 97.333 90.667 97.333H90.7148ZM86.667 90.667V80C86.667 77.7909 88.4579 76 90.667 76C92.876 76.0002 94.667 77.791 94.667 80V90.667C94.6668 92.8759 92.8759 94.6668 90.667 94.667C88.458 94.667 86.6672 92.876 86.667 90.667ZM121.333 90.667C121.333 107.603 107.603 121.333 90.667 121.333C73.7305 121.333 60.0002 107.603 60 90.667C60 73.7304 73.7304 60 90.667 60C107.603 60.0002 121.333 73.7305 121.333 90.667Z" fill="#FF6A13"/>
</svg>
